# xmcd CD database file
#
# Track frame offsets:
#	180
#	13108
#	24659
#	39466
#	49304
#	62547
#	76145
#	90152
#	104107
#	107264
#	122982
#	136076
#	148195
#	158104
#	171584
#	187102
#	202928
#	213291
#	226099
#	237542
#
# Disc length: 3302 seconds
#
# Revision: 0
# Processed by: cddbd v1.5.2PL0 Copyright (c) Steve Scherf et al.
# Submitted via: CDex 1.51
#
DISCID=110ce414
DTITLE=Jazz - Jazz
DYEAR=2005
DGENRE=Jazz
TTITLE0=Count Basie - It's torture
TTITLE1=Glenn Miller - We're the couple in the castle
TTITLE2=Glenn Miller - At the President's birthday ball
TTITLE3=Artie Shaw - Deuces wild
TTITLE4=Artie Shaw and his orchestra - Hop, skip and jump
TTITLE5=Louis Armstrong - Do you know what it means to miss New Orleans
TTITLE6=Louis Armstrong - Where the blues is born in New Orleans
TTITLE7=Django Reinhardt - Topsy
TTITLE8=Louis Armstrong - Boff boff
TTITLE9=Charlie Parker - Star eyes
TTITLE10=Nat King Cole - Jam-Bo
TTITLE11=Les Brown - My baby just cares for me
TTITLE12=Peggy Lee - (When I dance with you) et ideas
TTITLE13=Les Brown - Azure
TTITLE14=Charlie Parker - K. C. blues
TTITLE15=Charlie Parker - Autumn in New York
TTITLE16=Nat King Cole - Where were you
TTITLE17=Peggy Lee - Who's gonna pay the check
TTITLE18=Les Brown - Sugar
TTITLE19=Peggy Lee - I didn't know what time it was
EXTD=YEAR: 2005
EXTT0=
EXTT1=
EXTT2=
EXTT3=
EXTT4=
EXTT5=
EXTT6=
EXTT7=
EXTT8=
EXTT9=
EXTT10=
EXTT11=
EXTT12=
EXTT13=
EXTT14=
EXTT15=
EXTT16=
EXTT17=
EXTT18=
EXTT19=
PLAYORDER=
